# xmcd CD database file generated by OrangeCD 6.3
#
# Track frame offsets:
#	150
#	22305
#	36097
#	49507
#	65752
#	81362
#	93197
#	105512
#	126647
#	143262
#	158395
#	168162
#	183505
#	199845
#	215135
#	227967
#
# Disc length: 3161 seconds
#
# Revision: 6
# Processed by: cddbd v1.5.2PL0 Copyright (c) Steve Scherf et al.
# Submitted via: OrangeCD 6.3
#
DISCID=dd0c5710
DTITLE=Snooks Eaglin - Heavy Juice
DYEAR=1996
DGENRE=New Orleans Blues
TTITLE0=I Went To The Mardi Gras
TTITLE1=When It Rains It Pours
TTITLE2=Heavy Juice
TTITLE3=Pretty Girls Everywhere
TTITLE4=Black Night
TTITLE5=Kiss Of Fire
TTITLE6=It's Your Thing
TTITLE7=West Side Baby
TTITLE8=Out Of Nowhere
TTITLE9=That Same Old Train
TTITLE10=Bombastic
TTITLE11=Travelin' Mood
TTITLE12=Oh Lavinia
TTITLE13=Swannee River Rock
TTITLE14=Certainly All
TTITLE15=I'll See You In My Dreams/Mr Sandman
EXTD=
EXTT0=
EXTT1=
EXTT2=
EXTT3=
EXTT4=
EXTT5=
EXTT6=
EXTT7=
EXTT8=
EXTT9=
EXTT10=
EXTT11=
EXTT12=
EXTT13=
EXTT14=
EXTT15=
PLAYORDER=
